<?xml version="1.0" standalone="no"?>
<!DOCTYPE svg PUBLIC "-//W3C//DTD SVG 20010904//EN"
 "http://www.w3.org/TR/2001/REC-SVG-20010904/DTD/svg10.dtd">
<svg version="1.0" xmlns="http://www.w3.org/2000/svg"
 width="820.000000pt" height="584.000000pt" viewBox="0 0 820.000000 584.000000"
 preserveAspectRatio="xMidYMid meet">

<g transform="translate(0.000000,584.000000) scale(0.100000,-0.100000)"
fill="#000000" stroke="none">
<path d="M3994 5641 c-88 -51 -164 -161 -180 -260 -4 -22 -9 -41 -13 -41 -3 0
-16 20 -29 44 -84 158 -274 227 -412 150 -42 -24 -63 -45 -90 -88 -31 -51 -35
-65 -33 -117 1 -44 -1 -59 -10 -55 -7 3 -31 10 -54 17 -47 13 -53 29 -23 59
11 11 17 20 13 20 -3 0 1 8 9 18 38 44 26 42 -23 -3 -30 -27 -51 -51 -47 -53
14 -7 -11 -40 -34 -44 -13 -3 -32 -9 -42 -13 -14 -6 -17 -5 -11 4 4 8 -3 6
-18 -4 -32 -21 -57 -73 -57 -120 0 -20 -3 -35 -7 -33 -145 74 -207 87 -298 65
-100 -25 -178 -89 -209 -172 l-7 -20 -16 20 c-15 19 -15 19 -8 -10 4 -16 6
-47 6 -67 -2 -55 26 -167 53 -213 35 -58 150 -167 170 -159 11 4 4 -16 -22
-62 -47 -83 -66 -137 -58 -167 3 -12 37 -53 76 -91 38 -38 70 -72 70 -75 0 -4
-21 -23 -47 -42 -152 -113 -177 -308 -58 -453 43 -53 43 -54 24 -72 -10 -9
-19 -28 -19 -41 0 -32 36 -133 83 -233 22 -47 39 -89 38 -93 -1 -5 3 -6 9 -2
6 4 16 3 23 -2 7 -5 49 -10 94 -12 88 -2 197 -36 199 -62 1 -8 2 -31 3 -52 1
-32 6 -40 36 -54 35 -16 35 -18 35 -80 0 -45 -4 -63 -13 -63 -7 0 -17 -11 -23
-25 -5 -14 -36 -46 -68 -72 -67 -54 -84 -89 -66 -134 14 -32 48 -54 114 -73
l41 -12 0 -65 c1 -35 2 -71 3 -80 4 -33 41 -56 109 -70 37 -7 70 -14 73 -14 3
-1 25 -5 50 -9 25 -4 74 -14 110 -22 l66 -16 -4 -66 c-3 -44 3 -96 16 -152 11
-47 19 -86 17 -88 -2 -2 -36 -10 -76 -19 -159 -32 -304 -102 -355 -169 -28
-37 -40 -94 -30 -148 8 -44 83 -146 102 -139 8 3 14 9 14 15 0 5 -5 6 -10 3
-19 -12 68 180 92 202 17 15 18 14 18 -18 -1 -19 -15 -65 -33 -104 l-33 -69
51 -25 50 -25 -52 -11 -52 -10 39 -61 39 -61 -97 -29 c-179 -53 -325 -139
-395 -235 -28 -38 -87 -168 -87 -191 0 -7 4 -7 13 -1 13 11 87 27 87 19 0 -3
-18 -31 -40 -62 -56 -80 -81 -154 -87 -254 -9 -157 37 -298 127 -394 57 -61
127 -96 196 -99 30 -1 43 -6 39 -14 -9 -24 33 -13 54 13 23 29 29 60 9 48 -6
-4 -8 -3 -5 4 11 16 -4 44 -19 38 -8 -3 -14 -1 -14 4 0 6 -9 10 -20 10 -20 0
-20 0 1 -21 16 -16 18 -23 8 -35 -17 -20 -52 -17 -84 8 -25 19 -27 26 -23 72
7 88 75 162 177 193 62 19 212 18 284 -1 31 -9 112 -41 180 -72 206 -94 326
-132 508 -158 132 -20 219 -20 264 -2 18 8 37 11 41 8 4 -4 4 -1 0 6 -5 8 5
26 23 48 l31 35 6 -30 c6 -28 34 -45 34 -20 0 5 4 7 10 4 5 -3 7 0 5 7 -3 8 8
21 27 32 17 11 48 34 68 52 20 19 41 30 45 26 5 -4 5 -1 1 6 -5 8 -2 21 7 30
8 9 22 33 32 52 9 19 27 44 40 55 12 11 25 31 30 43 7 23 9 21 40 -26 45 -66
114 -124 207 -172 42 -22 80 -45 83 -50 3 -6 13 -10 20 -10 11 0 12 6 5 26 -6
14 -10 35 -10 47 1 22 1 22 12 2 15 -28 14 -28 37 -20 12 3 21 12 21 20 0 7 7
16 16 19 22 9 26 8 18 -6 -4 -7 -3 -8 5 -4 6 4 9 11 6 16 -3 5 15 19 40 31 25
12 53 31 62 41 21 23 40 24 22 0 -12 -15 -12 -16 2 -5 9 7 20 9 25 5 4 -4 3 0
-4 9 -10 14 -3 23 47 65 32 27 73 70 92 96 19 25 36 45 38 42 2 -2 -2 -12 -10
-21 -13 -16 -12 -17 4 -4 9 7 17 21 17 31 0 21 24 43 35 32 5 -4 5 -2 2 4 -12
21 67 112 153 178 165 125 307 111 397 -41 49 -83 40 -208 -18 -257 -53 -45
-139 -28 -176 34 -23 39 -34 38 -22 -2 26 -93 149 -122 238 -59 17 13 31 25
31 29 0 4 13 21 28 37 16 17 28 32 29 35 0 3 10 24 22 48 30 58 57 152 70 239
39 260 -48 562 -209 724 -75 75 -155 119 -273 149 -156 39 -263 45 -424 23
-35 -4 -43 -2 -43 11 0 9 -4 16 -10 16 -5 0 -10 10 -10 23 -1 50 -58 89 -155
105 -160 27 -293 22 -453 -19 -160 -40 -292 -130 -292 -200 l-1 -34 -18 22
-18 22 -13 -27 c-9 -20 -14 -23 -18 -12 -2 8 -12 33 -22 55 -24 55 -33 100
-25 134 5 26 11 29 56 33 28 3 62 14 77 25 40 30 83 87 84 114 1 13 6 30 12
38 18 24 17 66 -9 249 l-6 42 63 1 c76 1 115 7 142 21 19 10 20 10 6 -7 -14
-17 -14 -17 20 0 36 18 80 61 80 78 0 5 -7 3 -17 -4 -15 -13 -15 -12 -3 8 8
12 17 20 21 17 4 -2 6 46 5 106 -2 81 1 110 10 110 7 0 34 -9 61 -21 51 -22
55 -23 148 -37 66 -11 107 -7 149 14 16 7 33 11 39 7 6 -3 7 -1 3 5 -4 7 -1
12 6 12 15 0 50 35 66 67 15 27 16 100 2 108 -5 3 -10 16 -10 28 0 13 -6 31
-14 42 -7 11 -16 30 -20 42 -6 19 -2 22 36 28 24 4 52 15 62 24 11 9 16 10 12
4 -5 -9 -2 -11 11 -6 26 9 53 34 48 44 -3 4 0 11 6 15 8 4 9 3 5 -4 -4 -7 -3
-12 1 -12 12 0 35 39 28 49 -3 5 2 12 10 15 12 4 13 10 6 24 -5 10 -6 24 -2
30 4 7 3 36 -3 65 -8 40 -20 62 -52 94 l-42 41 34 7 c19 3 32 10 29 14 -3 5 2
12 11 15 24 9 31 7 14 -4 -10 -7 -11 -10 -2 -10 7 0 15 6 18 14 3 8 12 17 20
20 8 3 13 2 10 -3 -4 -5 3 -7 15 -4 16 4 18 8 7 14 -9 6 -5 8 12 7 29 -2 73
27 87 57 5 11 14 19 21 17 7 -1 11 1 10 5 -3 16 15 43 25 36 5 -3 7 -2 4 4 -3
5 1 29 9 54 8 24 13 32 11 17 -2 -15 0 -25 4 -22 5 3 8 25 7 49 -2 23 -6 41
-9 39 -4 -2 -9 9 -12 24 -12 60 -80 116 -179 147 l-57 18 64 41 c36 22 67 47
70 55 5 12 3 12 -12 0 -16 -13 -17 -12 -4 4 7 9 19 17 26 17 7 0 19 8 26 17
10 11 10 14 2 9 -7 -4 -13 -4 -13 1 1 11 26 43 31 39 5 -5 7 22 10 102 3 79
-26 142 -82 179 -39 26 -50 28 -141 28 -54 0 -98 1 -98 3 0 1 8 14 17 29 10
14 18 33 20 42 1 9 7 17 13 19 5 2 8 7 5 12 -3 4 2 13 10 20 8 7 15 22 15 34
0 15 3 17 9 8 7 -11 9 -11 14 2 3 8 1 16 -5 18 -7 3 -5 10 5 20 9 8 14 18 11
20 -2 3 2 35 10 71 7 37 10 64 5 61 -5 -3 -9 7 -9 21 0 58 -59 116 -137 133
-58 13 -124 -1 -200 -43 -35 -19 -65 -35 -66 -35 -2 0 -3 16 -3 35 0 19 3 35
7 35 3 0 4 12 2 28 -3 16 -1 22 4 15 5 -7 9 4 9 30 2 66 8 101 19 109 6 5 4 8
-5 8 -8 0 -30 23 -48 50 -76 112 -235 103 -376 -21 -50 -44 -51 -44 -35 -2 12
31 3 117 -12 108 -5 -4 -9 0 -9 7 0 7 -12 36 -27 65 -20 41 -36 57 -70 74 -62
30 -135 23 -202 -18 l-49 -31 -7 25 c-12 49 -92 166 -134 197 -35 25 -53 31
-109 34 -60 3 -73 0 -118 -27z m169 -25 c65 -27 117 -100 137 -192 11 -46 9
-52 -27 -122 -42 -83 -53 -94 -85 -94 -13 1 -53 1 -90 1 -58 1 -68 4 -68 19 1
35 40 104 91 157 35 37 47 55 35 55 -29 0 -103 -78 -140 -149 -39 -74 -52 -82
-126 -71 l-35 5 -3 71 c-3 88 21 160 79 233 72 90 153 121 232 87z m-573 -117
c70 -31 131 -104 169 -199 18 -45 31 -83 29 -84 -9 -6 -241 -27 -246 -22 -7 8
-5 101 3 126 4 11 2 20 -3 20 -12 0 -32 -54 -32 -89 l-1 -26 -14 25 c-16 28
-18 24 -15 -37 l1 -42 -67 -20 c-48 -14 -72 -17 -80 -10 -23 19 -48 113 -47
179 0 91 32 145 108 184 43 23 140 20 195 -5z m1020 -88 c35 -24 70 -97 70
-146 0 -22 -9 -60 -20 -84 -23 -50 0 -49 -222 -11 -91 15 -138 27 -138 36 0
22 61 128 93 162 68 71 153 88 217 43z m483 -191 c36 -40 34 -56 -8 -70 -31
-10 -88 -48 -167 -109 -35 -28 -60 -19 -47 17 8 25 8 26 -6 8 -14 -18 -15 -18
-67 4 -29 12 -56 25 -61 29 -4 4 13 28 37 53 109 115 250 145 319 68z m-1886
10 c37 -22 66 -71 61 -103 -3 -25 -122 -99 -144 -90 -32 12 -49 147 -24 193
14 26 64 27 107 0z m-154 -58 c-4 -46 -1 -69 16 -107 12 -26 19 -50 17 -52 -8
-8 -66 27 -76 47 -6 11 -14 43 -17 70 -5 44 -3 51 22 74 15 14 31 26 36 26 4
0 5 -26 2 -58z m-224 -48 c48 -22 181 -140 181 -162 0 -4 -23 -26 -50 -50
l-50 -43 -10 28 c-18 51 -38 77 -72 96 -44 24 -99 17 -185 -26 -100 -50 -137
-61 -164 -47 -18 10 -21 18 -16 52 11 82 87 153 186 174 69 14 110 9 180 -22z
m1161 16 c0 -11 7 -20 15 -20 10 0 15 7 13 18 -7 40 353 6 557 -53 103 -30
233 -89 241 -109 4 -9 -6 -29 -21 -48 -23 -27 -25 -34 -12 -36 9 -2 32 8 50
22 39 30 47 32 47 11 0 -8 16 -21 35 -29 25 -11 48 -36 84 -90 94 -145 211
-393 211 -450 0 -15 -9 -27 -26 -34 -31 -15 -23 -32 16 -32 36 0 41 -8 61 -92
11 -47 13 -68 5 -69 -6 -1 -35 0 -65 1 -72 3 -65 -20 13 -38 45 -11 59 -20 67
-39 15 -39 12 -56 -8 -47 -49 21 -148 52 -155 48 -13 -8 3 -33 25 -40 12 -3
48 -17 79 -31 51 -22 58 -30 64 -60 14 -73 -18 -243 -63 -343 -29 -62 -89
-135 -180 -216 -122 -108 -297 -284 -312 -313 l-13 -23 32 18 c18 11 49 36 69
57 46 49 101 91 101 78 0 -6 -16 -27 -36 -47 -32 -31 -65 -99 -101 -204 -8
-26 -259 -217 -270 -206 -3 3 7 22 23 42 62 78 83 113 89 143 7 41 -11 40 -28
-1 -19 -44 -230 -283 -289 -328 -54 -39 -185 -96 -396 -170 -165 -57 -199 -60
-424 -35 -187 21 -324 48 -348 70 -22 20 -25 56 -9 104 10 27 15 32 35 27 12
-3 78 -11 146 -16 68 -6 200 -17 293 -25 110 -9 184 -11 209 -5 22 5 76 5 125
0 73 -7 110 -8 143 -1 15 3 108 130 108 147 0 13 -19 -1 -64 -49 l-63 -68 -89
2 c-49 1 -123 -1 -164 -6 -72 -7 -320 10 -525 36 -80 11 -206 38 -269 59 -38
12 -61 48 -51 79 7 22 82 101 97 101 4 0 8 -16 8 -35 0 -22 6 -37 18 -43 9 -5
71 -15 137 -21 66 -7 255 -31 420 -53 165 -22 320 -41 345 -42 l45 -1 30 60
c26 53 30 70 30 145 -1 109 -28 169 -127 275 -114 122 -143 133 -418 159 -409
39 -782 57 -794 38 -7 -12 10 -18 77 -28 26 -3 50 -11 54 -17 11 -18 -125 -1
-147 18 -25 23 -110 198 -117 241 -3 18 -3 41 1 50 5 14 14 9 51 -29 34 -34
57 -48 96 -57 70 -17 148 -7 209 26 64 35 105 81 142 160 102 219 23 464 -182
561 -87 41 -161 55 -230 44 -61 -10 -79 -4 -104 33 -22 34 -20 62 9 124 71
152 262 368 424 477 70 47 88 55 113 50 26 -6 29 -5 24 12 -5 16 8 26 76 60
114 57 278 100 278 74 0 -6 5 -11 10 -11 6 0 10 6 10 14 0 10 22 18 73 26 39
6 79 13 87 15 8 1 75 3 148 4 126 1 132 0 132 -19z m1137 -20 c-1 -11 -7 -20
-13 -20 -7 0 -34 -9 -61 -21 -47 -19 -47 -20 -28 0 16 15 92 61 102 61 1 0 1
-9 0 -20z m-2 -72 c-4 -18 -12 -50 -18 -72 l-11 -38 -61 4 c-34 3 -72 11 -84
17 -19 11 -20 15 -9 28 13 16 163 93 181 93 5 0 6 -15 2 -32z m-2290 -102 c13
-13 27 -40 31 -61 8 -44 -10 -72 -75 -122 -38 -30 -46 -32 -89 -25 -59 9 -116
9 -165 0 -36 -6 -38 -5 -56 30 -10 20 -21 52 -24 70 l-6 32 77 0 c92 0 159 21
211 67 43 39 64 41 96 9z m-105 9 c0 -8 -84 -49 -115 -57 -29 -6 -29 -6 -10 9
41 31 125 64 125 48z m2728 -15 c42 -26 72 -76 72 -121 0 -109 -108 -293 -229
-388 l-39 -31 -26 68 c-14 37 -53 121 -86 186 -46 91 -57 122 -50 136 17 32
123 120 175 145 64 31 137 33 183 5z m-394 -60 c-19 -31 -34 -28 -55 12 -9 16
-5 18 31 18 l41 0 -17 -30z m-2400 -170 c32 -5 61 -12 64 -15 3 -3 -8 -20 -25
-38 -16 -17 -37 -42 -45 -55 l-15 -23 -59 61 c-33 34 -60 66 -62 71 -5 12 67
12 142 -1z m2976 -282 c58 -30 82 -72 83 -146 0 -105 -57 -173 -206 -242 l-65
-31 -55 38 c-46 31 -57 45 -66 80 -17 65 -15 70 44 109 30 21 53 39 51 41 -3
4 -68 -23 -108 -45 -11 -5 -21 59 -11 69 6 6 55 10 109 11 96 0 113 -3 229
-46 15 -6 14 -2 -8 18 -43 40 -127 61 -240 59 -58 -1 -95 2 -92 7 12 20 100
73 139 86 66 21 145 17 196 -8z m-2704 -285 c68 -23 145 -102 169 -172 63
-189 -76 -376 -280 -376 -160 0 -278 115 -277 270 0 126 80 241 197 283 46 16
136 14 191 -5z m2461 -128 l28 -25 -34 2 c-25 2 -36 9 -42 26 -12 31 12 29 48
-3z m234 -91 c159 -61 182 -180 57 -289 -55 -48 -125 -81 -216 -101 -67 -15
-183 -16 -197 -2 -3 3 4 35 15 72 26 83 50 205 50 254 0 67 11 67 89 2 40 -34
68 -53 62 -43 -14 25 -51 65 -84 90 l-29 22 24 5 c12 3 32 7 43 9 40 8 143 -2
186 -19z m79 -328 c0 -3 -13 -14 -30 -26 -16 -12 -30 -18 -30 -13 0 4 12 15
28 25 32 19 32 19 32 14z m-377 -132 c134 -31 187 -72 195 -154 6 -68 -27
-120 -93 -145 -63 -25 -130 -16 -251 33 -54 22 -116 46 -137 54 l-38 14 83 75
c45 41 95 89 111 107 34 37 35 37 130 16z m-2072 -199 l56 -7 6 -51 c3 -29 9
-74 13 -101 l7 -49 -114 6 c-163 10 -159 7 -159 79 0 96 36 143 105 133 17 -2
55 -7 86 -10z m-247 -10 c3 -10 1 -15 -7 -14 -6 1 -20 -1 -30 -6 -13 -5 -25
-1 -40 14 l-21 21 46 0 c32 0 48 -5 52 -15z m452 -12 c14 -5 6 -11 -32 -23
-50 -18 -74 -12 -74 16 0 15 73 20 106 7z m169 -50 c3 -16 18 -56 32 -91 14
-35 23 -66 20 -68 -3 -3 -41 -2 -86 1 l-80 7 -15 39 c-9 22 -16 55 -16 75 0
30 5 37 33 49 17 8 48 14 68 15 32 0 38 -4 44 -27z m1483 -24 c117 -47 180
-99 213 -175 23 -51 23 -116 1 -151 -7 -12 -33 -32 -58 -43 -86 -42 -223 -20
-350 56 -77 46 -90 59 -77 76 10 13 17 37 28 108 3 19 7 36 9 37 1 1 27 -7 57
-18 62 -24 56 -12 -15 25 -48 25 -48 26 -23 35 14 6 31 20 38 33 18 36 41 58
58 58 9 0 62 -18 119 -41z m-1243 -10 c53 -47 46 -80 -12 -53 -31 16 -46 44
-36 70 7 19 7 19 48 -17z m1620 -19 c-3 -5 -12 -10 -18 -10 -7 0 -6 4 3 10 19
12 23 12 15 0z m-2310 -150 c7 -12 -20 -42 -29 -33 -3 4 -6 15 -6 25 0 19 25
25 35 8z m765 -96 l32 -7 -6 -50 c-10 -69 -30 -104 -64 -112 -67 -14 -114 30
-120 115 l-4 60 65 0 c35 0 79 -3 97 -6z m-729 -14 c27 0 29 -3 29 -39 0 -63
-6 -71 -59 -71 -62 0 -83 16 -85 65 -1 36 2 40 29 46 17 4 36 5 43 3 8 -2 27
-4 43 -4z m2166 -12 c-3 -8 -6 -5 -6 6 -1 11 2 17 5 13 3 -3 4 -12 1 -19z
m-538 -94 c53 -141 -3 -249 -137 -261 -49 -5 -66 -1 -107 20 -28 14 -70 43
-94 64 l-43 38 75 48 c42 26 115 79 164 118 87 70 88 70 105 49 9 -11 26 -46
37 -76z m-1061 -51 c4 -14 -34 -18 -63 -7 -13 6 -14 9 -3 15 18 12 61 7 66 -8z
m215 0 c-7 -19 -22 -33 -37 -33 -7 0 34 49 41 50 1 0 -1 -8 -4 -17z m452 -155
c108 -125 145 -289 94 -408 -31 -71 -84 -105 -163 -105 -79 1 -128 27 -196
102 -64 72 -146 232 -127 250 6 6 54 30 106 52 116 50 168 80 205 120 17 17
33 31 37 31 4 0 24 -19 44 -42z m-418 -276 c58 -143 60 -259 8 -347 -50 -87
-145 -132 -241 -114 -142 27 -244 167 -263 362 -10 109 -5 117 71 117 35 0 80
-3 101 -7 41 -6 40 -5 72 -95 21 -60 35 -62 24 -5 -17 86 -13 103 28 122 59
28 137 55 152 52 8 -1 30 -39 48 -85z m243 -272 c23 -9 41 -19 41 -23 -1 -4 1
-17 3 -30 3 -12 12 -60 21 -107 31 -165 97 -330 216 -540 17 -30 51 -90 76
-133 24 -44 42 -81 40 -84 -3 -2 -19 3 -35 11 -17 9 -70 27 -118 41 -48 14
-94 31 -102 37 -21 18 -95 148 -156 273 -67 138 -117 266 -146 372 -21 77 -21
85 -6 130 8 26 18 71 22 100 l6 52 49 -41 c26 -23 66 -49 89 -58z m965 -30
l30 -12 -42 -18 c-45 -20 -99 -85 -109 -129 -16 -71 -30 -94 -100 -163 -103
-99 -195 -223 -254 -341 -28 -55 -50 -104 -50 -110 0 -7 -7 -20 -15 -30 -13
-18 -15 -16 -40 21 -48 72 -51 217 -10 462 l6 35 -16 -35 c-26 -56 -55 -190
-55 -254 0 -36 -4 -56 -9 -50 -5 5 -32 52 -60 105 -54 101 -86 214 -72 252 7
20 11 17 39 -28 19 -31 34 -70 38 -103 3 -29 9 -54 13 -57 13 -7 9 98 -5 172
-20 101 -19 108 22 153 56 62 186 117 329 140 79 12 322 5 360 -10z m-1682
-46 c96 -116 143 -148 237 -163 48 -8 140 4 193 25 29 11 121 -86 148 -155 12
-31 42 -96 67 -146 24 -49 42 -88 39 -85 -3 3 -43 41 -89 85 -90 86 -223 183
-235 171 -5 -4 1 -14 12 -22 11 -8 58 -47 104 -87 83 -71 297 -305 287 -314
-2 -3 -35 12 -73 32 -86 46 -273 100 -420 120 -93 13 -133 14 -226 5 -266 -26
-254 -26 -287 5 -17 16 -30 34 -30 41 0 6 22 14 50 18 28 4 50 9 50 12 0 19
-27 47 -65 70 -25 14 -45 29 -45 34 0 4 7 23 15 43 44 107 38 195 -16 225 -16
9 -29 20 -29 24 0 14 63 40 154 63 117 31 133 31 159 -1z m1778 -31 c14 -38 5
-53 -33 -53 -28 0 -58 13 -88 37 -12 10 48 43 78 43 26 0 34 -5 43 -27z
m-1251 -73 c5 0 7 -7 3 -16 -5 -14 -8 -13 -26 5 -18 17 -19 22 -6 37 13 16 14
16 17 -4 2 -12 7 -22 12 -22z m-866 4 c22 -8 20 -17 -14 -67 -34 -51 -49 -87
-59 -142 l-7 -40 -22 46 c-37 75 -25 142 34 188 28 22 42 25 68 15z m2529 -5
c218 -32 353 -114 452 -274 147 -237 166 -559 47 -815 l-25 -55 -8 71 c-12
124 -89 228 -190 258 -60 18 -98 14 -179 -17 -102 -38 -179 -103 -290 -242
-134 -169 -238 -263 -351 -321 -55 -27 -56 -27 -109 68 -38 70 -55 75 -47 16
3 -24 9 -67 13 -96 l7 -54 -34 17 c-72 37 -145 94 -175 136 -52 72 -65 115
-74 244 -6 78 -17 141 -31 180 -37 103 -36 126 6 202 75 137 179 247 310 329
76 46 227 106 302 119 23 3 47 13 54 21 33 40 -165 -3 -295 -64 -123 -58 -231
-146 -316 -257 -21 -28 -22 -29 -15 -5 9 34 123 203 182 269 81 92 234 197
347 238 112 40 280 53 419 32z m-516 -12 c21 -12 21 -13 -18 -35 l-39 -23 0
29 c0 44 16 52 57 29z m-1391 -462 c56 -9 151 -29 211 -46 106 -30 293 -110
293 -126 0 -4 -64 -9 -143 -10 -126 -1 -369 -31 -385 -48 -16 -15 21 -16 140
-2 231 28 314 30 423 13 185 -28 276 -68 314 -136 33 -60 51 -140 51 -235 0
-99 -24 -189 -73 -277 -36 -65 -141 -173 -157 -163 -5 3 -11 20 -15 38 -10 51
-16 67 -24 67 -3 0 -33 -42 -64 -94 -63 -103 -67 -106 -167 -106 -168 0 -354
47 -596 150 -88 37 -185 75 -215 84 -120 36 -284 30 -370 -15 -99 -50 -156
-142 -146 -232 l6 -48 -32 18 c-52 30 -124 134 -149 216 -18 57 -23 95 -23
182 0 102 3 115 31 175 25 54 80 134 148 219 9 12 1 13 -56 8 l-66 -6 16 41
c9 22 43 68 77 102 118 120 317 195 595 226 204 22 254 23 376 5z m-755 -1236
c-12 -13 -21 -19 -21 -14 0 11 32 46 38 41 2 -3 -5 -15 -17 -27z"/>
<path d="M4622 4730 c0 -19 2 -27 5 -17 2 9 2 25 0 35 -3 9 -5 1 -5 -18z"/>
<path d="M3505 4710 c-49 -6 -50 -6 -22 -18 36 -15 82 -15 110 0 21 11 21 11
2 19 -22 8 -20 8 -90 -1z"/>
<path d="M3682 4675 c-214 -51 -264 -53 -360 -18 -15 6 -16 5 -2 -12 22 -27
89 -55 133 -55 54 0 220 35 308 65 41 14 98 28 126 31 29 4 50 11 47 15 -11
18 -112 7 -252 -26z"/>
<path d="M3114 4605 c22 -16 167 -70 246 -91 72 -19 113 -18 277 7 153 23 228
20 321 -12 70 -24 80 -24 57 1 -25 27 -117 60 -189 67 -39 3 -116 -3 -210 -17
-172 -25 -203 -23 -359 26 -60 19 -121 34 -135 34 -25 -1 -26 -1 -8 -15z"/>
<path d="M4295 4429 c-98 -6 -198 -41 -285 -99 -58 -38 -45 -39 23 -1 114 65
324 97 460 71 93 -17 145 -54 206 -144 62 -91 82 -107 45 -35 -93 185 -183
226 -449 208z"/>
<path d="M2676 4392 c-3 -5 21 -18 52 -29 31 -12 82 -31 112 -43 73 -29 53
-10 -43 40 -76 39 -111 48 -121 32z"/>
<path d="M4175 4343 c-259 -55 -434 -313 -382 -564 8 -41 27 -99 41 -129 32
-67 148 -214 209 -264 109 -89 244 -117 375 -77 85 25 205 103 262 169 55 64
118 193 129 268 21 137 -49 328 -168 456 -65 71 -182 132 -281 148 -82 12 -99
12 -185 -7z m254 -62 c200 -62 337 -260 317 -458 -29 -283 -275 -466 -557
-413 -177 34 -332 199 -358 384 -31 218 91 415 304 488 70 24 214 24 294 -1z"/>
<path d="M4346 3875 c-24 -37 -18 -70 14 -70 43 0 54 79 13 92 -6 2 -18 -8
-27 -22z"/>
<path d="M3544 3774 c-24 -36 -20 -102 9 -161 30 -58 51 -78 73 -69 14 5 15
15 10 57 -4 28 -16 74 -27 102 -11 28 -18 61 -14 74 8 33 -29 31 -51 -3z"/>
<path d="M3620 3775 c0 -4 9 -20 20 -35 11 -15 24 -38 29 -51 5 -13 10 -18 10
-11 1 16 -35 89 -49 97 -5 3 -10 3 -10 0z"/>
<path d="M3255 3738 l-20 -21 22 12 c23 12 40 31 26 30 -4 0 -17 -10 -28 -21z"/>
<path d="M3295 3666 c-21 -21 -26 -34 -23 -69 2 -34 7 -43 24 -45 25 -4 74 65
77 106 3 39 -43 43 -78 8z"/>
<path d="M4716 3484 c-72 -94 -168 -163 -268 -194 -124 -38 -129 -41 -63 -35
34 2 89 13 124 24 57 18 62 18 58 3 -3 -9 -21 -69 -41 -132 -19 -63 -41 -131
-49 -150 -8 -19 -18 -46 -22 -60 -7 -22 -6 -23 8 -12 33 28 99 222 121 358 1
7 29 43 63 80 59 68 138 182 131 190 -2 2 -30 -30 -62 -72z"/>
<path d="M4757 3339 c-43 -29 -83 -61 -89 -72 -5 -11 -14 -54 -20 -96 -8 -66
-16 -88 -65 -169 -30 -51 -59 -95 -64 -98 -5 -3 -9 -10 -9 -17 0 -21 70 57
119 133 43 66 50 84 56 145 l6 70 82 77 c45 42 77 77 72 78 -6 0 -46 -23 -88
-51z"/>
<path d="M3180 2520 c0 -13 57 -27 160 -40 106 -13 137 -13 125 -1 -9 9 -231
51 -269 51 -9 0 -16 -4 -16 -10z"/>
<path d="M2793 3931 c-8 -13 -9 -21 0 -30 14 -14 48 15 40 35 -7 20 -26 17
-40 -5z"/>
<path d="M4250 1946 c0 -70 87 -353 155 -502 62 -137 164 -282 178 -256 3 4
-13 34 -35 67 -34 53 -60 104 -153 300 -29 62 -56 148 -90 285 -27 108 -55
162 -55 106z"/>
<path d="M4181 1931 c-1 -29 79 -325 112 -412 28 -73 88 -195 111 -224 l16
-20 -7 20 c-3 11 -11 26 -17 34 -5 7 -11 18 -13 25 -1 6 -20 55 -43 110 -22
54 -60 172 -85 263 -25 91 -52 179 -60 197 -12 28 -13 29 -14 7z"/>
<path d="M4667 1889 c-52 -34 -97 -83 -97 -105 0 -7 24 10 53 39 28 29 66 62
82 74 46 34 15 27 -38 -8z"/>
<path d="M4701 1647 c-30 -78 -43 -297 -22 -362 9 -28 9 -29 10 -5 1 14 3 88
6 165 2 77 9 158 14 180 11 45 6 60 -8 22z"/>
<path d="M3461 1885 c-62 -53 -64 -146 -5 -264 31 -62 104 -151 124 -151 5 0
17 -3 27 -7 10 -3 -4 16 -32 44 -141 142 -175 309 -78 382 21 15 24 20 11 21
-9 0 -30 -11 -47 -25z"/>
<path d="M3950 1574 c0 -9 89 -114 133 -156 45 -44 70 -51 35 -10 -12 15 -42
50 -65 78 -41 48 -103 101 -103 88z"/>
<path d="M2396 5231 c-16 -11 -34 -28 -39 -38 -6 -11 4 -6 24 12 19 16 38 33
44 37 18 15 0 8 -29 -11z"/>
<path d="M2332 5069 c-16 -25 -7 -99 15 -126 13 -17 13 -16 6 7 -4 14 -8 51
-8 83 0 31 0 57 0 57 0 0 -6 -9 -13 -21z"/>
<path d="M5674 818 l-19 -23 23 19 c12 11 22 21 22 23 0 8 -8 2 -26 -19z"/>
<path d="M6190 578 c-19 -16 -26 -26 -15 -20 18 9 64 53 54 52 -2 -1 -20 -15
-39 -32z"/>
<path d="M5314 449 c-19 -22 -19 -22 4 -8 12 8 22 17 22 21 0 12 -6 9 -26 -13z"/>
<path d="M4565 294 c-18 -16 -22 -22 -9 -15 18 9 53 42 43 41 -2 -1 -17 -12
-34 -26z"/>
<path d="M4375 199 c-4 -6 -4 -13 -1 -16 8 -8 36 5 36 17 0 13 -27 13 -35 -1z"/>
</g>
</svg>
