<?xml version="1.0" standalone="no"?>
<!DOCTYPE svg PUBLIC "-//W3C//DTD SVG 20010904//EN"
 "http://www.w3.org/TR/2001/REC-SVG-20010904/DTD/svg10.dtd">
<svg version="1.0" xmlns="http://www.w3.org/2000/svg"
 width="274.000000pt" height="184.000000pt" viewBox="0 0 274.000000 184.000000"
 preserveAspectRatio="xMidYMid meet">

<g transform="translate(0.000000,184.000000) scale(0.100000,-0.100000)"
fill="#000000" stroke="none">
<path d="M1302 1675 c-17 -14 -37 -44 -43 -65 l-12 -38 -31 41 c-21 27 -46 47
-73 56 -36 13 -45 13 -86 -3 -57 -21 -82 -67 -73 -132 l5 -43 -44 20 c-37 16
-51 18 -83 10 -73 -20 -109 -90 -78 -152 9 -18 16 -34 16 -36 0 -1 -16 -3 -35
-3 -74 0 -125 -51 -125 -126 0 -28 8 -44 34 -70 19 -19 42 -34 53 -34 13 -1
10 -5 -12 -17 -74 -39 -105 -97 -85 -158 17 -51 53 -75 112 -75 42 0 49 -3 44
-16 -16 -41 -16 -64 -2 -97 25 -60 98 -93 147 -67 17 10 19 7 19 -20 0 -69 53
-120 126 -120 28 0 44 8 70 34 l33 33 11 -31 c12 -35 48 -76 66 -76 9 0 12
-14 11 -45 -1 -25 -3 -45 -5 -45 -1 0 -22 10 -45 21 -52 27 -159 36 -212 19
-105 -35 -191 -187 -142 -254 12 -17 14 -16 25 8 6 14 18 26 26 26 8 0 59 -18
115 -41 119 -47 212 -55 282 -23 39 17 41 17 71 0 59 -36 181 6 248 85 47 56
92 83 122 73 20 -6 20 -5 -3 36 -28 50 -89 88 -156 99 -47 8 -45 13 10 25 37
9 67 59 67 115 l0 44 24 -22 c13 -12 42 -25 65 -28 35 -5 44 -2 71 25 31 32
36 56 21 109 l-10 33 29 -15 c16 -8 49 -15 74 -15 107 0 142 101 64 186 l-19
22 35 6 c52 10 86 43 93 91 4 34 1 44 -22 67 -14 15 -40 30 -57 34 l-31 6 37
32 c69 58 77 144 19 195 -23 20 -34 23 -83 18 l-56 -5 4 57 c4 50 1 61 -23 89
-43 51 -115 52 -165 2 l-20 -20 0 36 c0 48 -53 104 -99 104 -41 0 -77 -18 -97
-48 l-17 -26 -16 44 c-20 53 -55 81 -113 87 -37 4 -49 1 -76 -22z m138 -23
c29 -30 56 -103 46 -129 -4 -10 -20 -13 -58 -11 l-53 3 -6 40 -6 40 -2 -42 -1
-43 -45 0 -45 0 0 45 c0 50 20 98 47 114 36 21 93 13 123 -17z m-270 -18 c36
-31 60 -73 60 -107 0 -20 -7 -26 -39 -34 -37 -10 -39 -9 -62 28 -29 48 -37 44
-9 -4 l21 -36 -48 -21 c-45 -20 -48 -20 -61 -3 -20 28 -34 93 -27 129 13 72
105 98 165 48z m481 -19 c33 -18 49 -50 49 -98 0 -54 -11 -62 -61 -44 -24 8
-43 18 -43 23 1 5 5 20 8 34 5 20 3 18 -11 -7 -16 -33 -25 -34 -80 -18 -19 6
-3 45 37 86 41 43 56 47 101 24z m233 -106 c18 -22 26 -42 26 -70 0 -39 -23
-99 -38 -99 -4 0 -25 16 -47 35 l-40 35 25 20 c14 11 21 20 16 20 -6 0 -20 -9
-32 -21 -21 -20 -22 -20 -52 -1 l-31 18 19 31 c42 70 110 84 154 32z m-951
-10 c35 -18 67 -51 67 -70 0 -9 -11 -24 -25 -33 -22 -15 -27 -14 -62 5 l-38
21 30 -26 30 -25 -35 -36 -35 -36 -32 35 c-40 43 -49 77 -33 117 21 50 85 73
133 48z m549 -88 c146 -37 245 -108 294 -207 22 -45 26 -64 22 -116 -2 -35
-12 -80 -23 -101 -42 -89 -170 -176 -305 -208 -79 -19 -241 -16 -320 5 -132
36 -251 121 -290 209 -28 60 -26 148 4 212 47 101 190 194 336 218 71 12 211
6 282 -12z m566 -66 c52 -44 48 -101 -11 -162 -42 -45 -59 -42 -78 12 l-17 45
27 21 26 20 -30 -15 c-30 -14 -31 -13 -58 24 l-28 39 23 12 c64 34 109 36 146
4z m-1216 -52 c16 -14 16 -18 -5 -54 -12 -22 -26 -37 -32 -35 -5 2 -21 6 -35
10 -19 5 -17 2 8 -11 26 -13 32 -22 28 -38 -3 -11 -6 -28 -6 -39 0 -16 -5 -18
-37 -13 -52 9 -93 51 -93 98 0 43 37 95 73 102 33 7 80 -3 99 -20z m1235 -198
c46 -30 38 -110 -13 -134 -23 -10 -94 -16 -94 -7 0 1 5 17 11 35 8 23 17 31
37 32 l27 2 -27 4 c-26 4 -28 8 -28 50 l0 46 32 -7 c18 -3 42 -13 55 -21z
m-1283 -46 c10 -52 7 -59 -29 -75 -47 -19 -45 -27 3 -10 l38 14 21 -45 21 -45
-36 -15 c-67 -28 -143 5 -157 67 -9 40 18 96 57 120 49 30 74 26 82 -11z
m1215 -164 c91 -104 -31 -205 -144 -120 -19 15 -19 16 7 41 25 25 26 26 54 9
l29 -17 -27 21 -27 22 27 39 c15 22 32 39 38 40 7 0 26 -16 43 -35z m-1126
-41 c17 -23 18 -27 3 -43 -9 -10 -16 -21 -16 -25 0 -5 8 2 19 15 l18 23 42
-33 c22 -18 41 -37 41 -42 0 -6 -11 -21 -25 -34 -67 -68 -190 19 -155 111 23
60 44 68 73 28z m953 -119 c30 -73 8 -125 -56 -125 -31 0 -44 6 -69 35 -38 43
-38 53 -4 66 22 8 30 6 52 -13 22 -19 23 -20 8 -2 -23 28 -22 36 11 56 38 23
41 22 58 -17z m-787 -10 c23 -11 28 -20 24 -42 -3 -26 -3 -26 6 -5 12 26 12
26 62 10 46 -13 50 -35 19 -86 -67 -110 -223 -7 -168 113 13 29 19 30 57 10z
m605 -61 c3 -9 6 -38 6 -66 0 -65 -38 -108 -95 -108 -49 0 -110 58 -120 113
-4 21 -6 40 -4 42 2 2 22 5 43 6 37 4 40 2 48 -28 5 -18 13 -35 19 -39 8 -4 8
0 0 14 -19 37 -14 61 17 68 15 3 32 7 37 9 24 8 43 4 49 -11z m-367 -12 c6 -4
13 -21 16 -37 l4 -30 2 33 c1 32 2 32 51 32 l50 0 0 -35 c0 -99 -88 -145 -157
-82 -27 24 -47 79 -38 107 6 20 48 28 72 12z m163 -132 c0 -4 -11 -17 -25 -30
-14 -13 -25 -31 -25 -40 0 -9 -9 -25 -19 -34 -11 -10 -22 -30 -26 -44 l-7 -27
-29 33 c-23 25 -29 42 -27 65 3 26 8 32 35 38 44 9 80 34 89 61 6 21 7 21 20
3 8 -10 14 -22 14 -25z m44 -25 c11 -8 28 -15 38 -15 10 0 18 -4 18 -10 0 -5
-15 -10 -32 -10 -18 -1 -50 -7 -70 -14 -45 -16 -47 -9 -12 33 29 35 32 36 58
16z m-268 -79 c28 -13 70 -42 93 -65 23 -23 43 -41 46 -41 3 0 5 12 5 26 0 39
17 62 63 85 58 30 154 37 212 15 44 -17 105 -65 105 -83 0 -5 -16 -15 -35 -22
-19 -7 -54 -35 -80 -65 -75 -89 -197 -126 -249 -77 l-24 23 -31 -23 c-22 -16
-49 -24 -91 -27 -70 -5 -128 8 -222 49 -73 32 -116 37 -124 14 -9 -22 -24 -8
-24 21 0 55 59 146 114 176 17 9 17 8 -2 -17 -27 -34 -20 -47 8 -17 11 11 36
24 57 28 34 6 35 8 17 22 -32 24 99 7 162 -22z"/>
<path d="M1134 1227 c-3 -8 -4 -47 -2 -88 l3 -74 30 0 30 0 0 85 0 85 -28 3
c-16 2 -29 -2 -33 -11z m26 -37 c0 -11 -4 -20 -10 -20 -5 0 -10 9 -10 20 0 11
5 20 10 20 6 0 10 -9 10 -20z"/>
<path d="M1541 1226 c-7 -9 -11 -42 -9 -88 3 -68 5 -73 26 -76 40 -6 52 14 52
87 0 39 -5 72 -12 79 -16 16 -43 15 -57 -2z m22 -42 c-4 -10 -9 -12 -15 -6
-12 12 -1 35 12 27 5 -3 6 -13 3 -21z"/>
<path d="M1620 990 c0 -5 5 -10 11 -10 28 0 -18 -31 -99 -66 -77 -34 -96 -39
-167 -39 -55 0 -102 7 -150 22 -74 23 -146 67 -123 76 7 2 9 8 5 13 -4 4 -16
3 -25 -2 -21 -14 -29 -46 -10 -42 7 1 33 -9 58 -24 66 -38 133 -58 219 -65 71
-5 83 -3 173 32 54 21 109 48 123 61 18 16 25 19 25 9 0 -8 5 -15 10 -15 18 0
11 39 -9 50 -25 13 -41 13 -41 0z"/>
<path d="M1479 415 c-28 -15 -46 -45 -28 -45 6 0 22 9 36 20 14 11 36 20 49
20 13 0 24 5 24 10 0 15 -51 11 -81 -5z"/>
</g>
</svg>
